<svg width="124" height="40" viewBox="0 0 124 40" fill="none" xmlns="http://www.w3.org/2000/svg">
<path d="M38.3049 6.26581H6.77451L6.79465 12.6273H33.3286V18.8578H6.80472C7.1019 26.3123 10.119 30.6893 18.6362 31.9888C20.0545 32.2076 21.4837 32.3488 22.9175 32.4119C24.0105 32.4824 25.728 32.4824 26.9469 32.4824H38.3049V39H27.0527C23.3879 39.0694 19.7253 38.7775 16.1178 38.1286C4.56335 35.6707 0 28.1205 0 16.1178V0H38.3049V6.26581Z" fill="white"/>
<path d="M52.4584 24.7609C54.7892 22.3857 59.0612 21.8487 63.4853 21.2925C67.5891 20.7766 71.8238 20.2443 74.7614 18.2131C80.171 14.4708 81.1934 7.38397 81.1934 3.60638V0H42.6367V6.26581H73.7037C73.7037 6.26581 74.0412 10.5773 70.4096 12.9396C68.5841 14.1275 65.4734 14.543 62.0102 15.0056C57.0739 15.665 51.4216 16.42 47.7541 19.6436C43.1605 23.673 42.6367 29.4905 42.6367 34.1647V39H81.1934V32.2356H50.1717C50.1717 32.2356 49.6983 27.5715 52.4584 24.7609Z" fill="white"/>
<path d="M92.2995 0H85.53V16.1178C85.53 28.1406 90.0934 35.6908 101.618 38.1488C105.227 38.7973 108.891 39.0892 112.558 39.0201H123.83V0H117.06V32.4824H112.472C111.253 32.4824 109.54 32.4824 108.442 32.4119C107.002 32.3497 105.566 32.2085 104.141 31.9888C95.1503 30.6188 92.2844 25.8187 92.2844 17.5885L92.2995 0Z" fill="white"/>
</svg>
